REM DIRINDEX 1\2\6,1\2\7,1\2\8,1\3\9,1\3\10,1\3\11,1\4\12,1\4\13,1\4\14,1\5\15,1\5\16,1\5\17,1\5\18
REM DIRNAME folder01,folder02,folder03,folder04,folder05,folder06,folder07,folder08,folder09,folder10,folder11,folder12,folder13,folder14,folder15,folder16,folder17,folder18
TITLE ""
FILE "" MP3
  TRACK 01 AUDIO
    TITLE "16:cjc019_7175"
    INDEX 01 00:00:00
  TRACK 02 AUDIO
    TITLE "0:"
    INDEX 01 00:00:70
  TRACK 03 AUDIO
    TITLE "18:cjc019_7176"
    INDEX 01 00:01:52
  TRACK 04 AUDIO
    TITLE "0:"
    INDEX 01 00:05:67
  TRACK 05 AUDIO
    TITLE "17:cjc019_7177"
    INDEX 01 00:06:41
  TRACK 06 AUDIO
    TITLE "0:"
    INDEX 01 00:07:47
  TRACK 07 AUDIO
    TITLE "16:cjc019_7178"
    INDEX 01 00:09:28
  TRACK 08 AUDIO
    TITLE "0:"
    INDEX 01 00:10:47
  TRACK 09 AUDIO
    TITLE "18:cjc019_7179"
    INDEX 01 00:11:29
  TRACK 10 AUDIO
    TITLE "0:"
    INDEX 01 00:14:37
  TRACK 11 AUDIO
    TITLE "17:cjc019_7180"
    INDEX 01 00:15:11
  TRACK 12 AUDIO
    TITLE "0:"
    INDEX 01 00:16:28
  TRACK 13 AUDIO
    TITLE "16:cjc019_7181"
    INDEX 01 00:18:01
  TRACK 14 AUDIO
    TITLE "0:"
    INDEX 01 00:19:22
  TRACK 15 AUDIO
    TITLE "18:cjc019_7182"
    INDEX 01 00:20:00
  TRACK 16 AUDIO
    TITLE "0:"
    INDEX 01 00:22:34
  TRACK 17 AUDIO
    TITLE "17:cjc019_7183"
    INDEX 01 00:23:10
  TRACK 18 AUDIO
    TITLE "0:"
    INDEX 01 00:24:27
  TRACK 19 AUDIO
    TITLE "16:cjc019_7184"
    INDEX 01 00:26:05
  TRACK 20 AUDIO
    TITLE "0:"
    INDEX 01 00:27:32
  TRACK 21 AUDIO
    TITLE "18:cjc019_7185"
    INDEX 01 00:28:15
  TRACK 22 AUDIO
    TITLE "0:"
    INDEX 01 00:29:52
  TRACK 23 AUDIO
    TITLE "17:cjc019_7186"
    INDEX 01 00:30:34
  TRACK 24 AUDIO
    TITLE "0:"
    INDEX 01 00:31:65
  TRACK 25 AUDIO
    TITLE "16:cjc019_7187"
    INDEX 01 00:33:44
  TRACK 26 AUDIO
    TITLE "0:"
    INDEX 01 00:34:67
  TRACK 27 AUDIO
    TITLE "18:cjc019_7188"
    INDEX 01 00:35:49
  TRACK 28 AUDIO
    TITLE "0:"
    INDEX 01 00:39:31
  TRACK 29 AUDIO
    TITLE "17:cjc019_7189"
    INDEX 01 00:40:09
  TRACK 30 AUDIO
    TITLE "0:"
    INDEX 01 00:41:34
  TRACK 31 AUDIO
    TITLE "16:cjc019_7190"
    INDEX 01 00:43:13
  TRACK 32 AUDIO
    TITLE "0:"
    INDEX 01 00:44:26
  TRACK 33 AUDIO
    TITLE "18:cjc019_7191"
    INDEX 01 00:45:08
  TRACK 34 AUDIO
    TITLE "0:"
    INDEX 01 00:46:37
  TRACK 35 AUDIO
    TITLE "17:cjc019_7192"
    INDEX 01 00:47:13
  TRACK 36 AUDIO
    TITLE "0:"
    INDEX 01 00:48:28
  TRACK 37 AUDIO
    TITLE "16:cjc019_7193"
    INDEX 01 00:50:09
  TRACK 38 AUDIO
    TITLE "0:"
    INDEX 01 00:51:34
  TRACK 39 AUDIO
    TITLE "18:cjc019_7194"
    INDEX 01 00:52:18
  TRACK 40 AUDIO
    TITLE "0:"
    INDEX 01 00:55:67
  TRACK 41 AUDIO
    TITLE "17:cjc019_7195"
    INDEX 01 00:56:43
  TRACK 42 AUDIO
    TITLE "0:"
    INDEX 01 00:57:70
  TRACK 43 AUDIO
    TITLE "16:cjc019_7196"
    INDEX 01 00:59:51
  TRACK 44 AUDIO
    TITLE "0:"
    INDEX 01 01:00:41
  TRACK 45 AUDIO
    TITLE "18:cjc019_7197"
    INDEX 01 01:01:34
  TRACK 46 AUDIO
    TITLE "0:"
    INDEX 01 01:03:35
  TRACK 47 AUDIO
    TITLE "17:cjc019_7198"
    INDEX 01 01:04:11
  TRACK 48 AUDIO
    TITLE "0:"
    INDEX 01 01:05:01
  TRACK 49 AUDIO
    TITLE "16:cjc019_7199"
    INDEX 01 01:07:00
  TRACK 50 AUDIO
    TITLE "0:"
    INDEX 01 01:08:19
  TRACK 51 AUDIO
    TITLE "18:cjc019_7200"
    INDEX 01 01:09:03
  TRACK 52 AUDIO
    TITLE "0:"
    INDEX 01 01:10:47
  TRACK 53 AUDIO
    TITLE "17:cjc019_7201"
    INDEX 01 01:11:25
  TRACK 54 AUDIO
    TITLE "0:"
    INDEX 01 01:12:46
  TRACK 55 AUDIO
    TITLE "16:cjc019_7202"
    INDEX 01 01:14:29
  TRACK 56 AUDIO
    TITLE "0:"
    INDEX 01 01:15:64
  TRACK 57 AUDIO
    TITLE "18:cjc019_7203"
    INDEX 01 01:16:46
  TRACK 58 AUDIO
    TITLE "0:"
    INDEX 01 01:20:16
  TRACK 59 AUDIO
    TITLE "17:cjc019_7204"
    INDEX 01 01:20:67
  TRACK 60 AUDIO
    TITLE "0:"
    INDEX 01 01:22:35
  TRACK 61 AUDIO
    TITLE "16:cjc019_7205"
    INDEX 01 01:24:16
  TRACK 62 AUDIO
    TITLE "0:"
    INDEX 01 01:25:31
  TRACK 63 AUDIO
    TITLE "18:cjc019_7206"
    INDEX 01 01:26:21
  TRACK 64 AUDIO
    TITLE "0:"
    INDEX 01 01:29:37
  TRACK 65 AUDIO
    TITLE "17:cjc019_7207"
    INDEX 01 01:30:13
  TRACK 66 AUDIO
    TITLE "0:"
    INDEX 01 01:31:34
  TRACK 67 AUDIO
    TITLE "16:cjc019_7208"
    INDEX 01 01:33:17
  TRACK 68 AUDIO
    TITLE "0:"
    INDEX 01 01:34:46
  TRACK 69 AUDIO
    TITLE "18:cjc019_7209"
    INDEX 01 01:35:27
  TRACK 70 AUDIO
    TITLE "0:"
    INDEX 01 01:38:08
  TRACK 71 AUDIO
    TITLE "17:cjc019_7210"
    INDEX 01 01:38:57
  TRACK 72 AUDIO
    TITLE "0:"
    INDEX 01 01:40:05
  TRACK 73 AUDIO
    TITLE "16:cjc019_7211"
    INDEX 01 01:41:65
  TRACK 74 AUDIO
    TITLE "0:"
    INDEX 01 01:43:05
  TRACK 75 AUDIO
    TITLE "18:cjc019_7212"
    INDEX 01 01:43:64
  TRACK 76 AUDIO
    TITLE "0:"
    INDEX 01 01:45:14
  TRACK 77 AUDIO
    TITLE "17:cjc019_7213"
    INDEX 01 01:45:69
  TRACK 78 AUDIO
    TITLE "0:"
    INDEX 01 01:47:17
  TRACK 79 AUDIO
    TITLE "16:cjc019_7214"
    INDEX 01 01:48:73
  TRACK 80 AUDIO
    TITLE "0:"
    INDEX 01 01:50:13
  TRACK 81 AUDIO
    TITLE "18:cjc019_7215"
    INDEX 01 01:50:72
  TRACK 82 AUDIO
    TITLE "0:"
    INDEX 01 01:52:34
  TRACK 83 AUDIO
    TITLE "17:cjc019_7216"
    INDEX 01 01:53:14
  TRACK 84 AUDIO
    TITLE "0:"
    INDEX 01 01:54:35
  TRACK 85 AUDIO
    TITLE "16:cjc019_7217"
    INDEX 01 01:56:16
  TRACK 86 AUDIO
    TITLE "0:"
    INDEX 01 01:57:43
  TRACK 87 AUDIO
    TITLE "18:cjc019_7218"
    INDEX 01 01:58:27
  TRACK 88 AUDIO
    TITLE "0:"
    INDEX 01 02:02:62
  TRACK 89 AUDIO
    TITLE "17:cjc019_7219"
    INDEX 01 02:03:38
  TRACK 90 AUDIO
    TITLE "0:"
    INDEX 01 02:04:64
  TRACK 91 AUDIO
    TITLE "16:cjc019_7220"
    INDEX 01 02:06:46
  TRACK 92 AUDIO
    TITLE "0:"
    INDEX 01 02:07:43
  TRACK 93 AUDIO
    TITLE "18:cjc019_7221"
    INDEX 01 02:08:25
  TRACK 94 AUDIO
    TITLE "0:"
    INDEX 01 02:12:35
  TRACK 95 AUDIO
    TITLE "17:cjc019_7222"
    INDEX 01 02:13:09
  TRACK 96 AUDIO
    TITLE "0:"
    INDEX 01 02:14:10
  TRACK 97 AUDIO
    TITLE "16:cjc019_7223"
    INDEX 01 02:15:66
  TRACK 98 AUDIO
    TITLE "0:"
    INDEX 01 02:17:08
  TRACK 99 AUDIO
    TITLE "18:cjc019_7224"
    INDEX 01 02:17:73
  TRACK 100 AUDIO
    TITLE "0:"
    INDEX 01 02:22:17
  TRACK 101 AUDIO
    TITLE "17:cjc019_7225"
    INDEX 01 02:22:72
  TRACK 102 AUDIO
    TITLE "0:"
    INDEX 01 02:24:16
  TRACK 103 AUDIO
    TITLE "16:cjc019_7226"
    INDEX 01 02:25:72
  TRACK 104 AUDIO
    TITLE "0:"
    INDEX 01 02:27:07
  TRACK 105 AUDIO
    TITLE "18:cjc019_7227"
    INDEX 01 02:27:63
  TRACK 106 AUDIO
    TITLE "0:"
    INDEX 01 02:30:32
  TRACK 107 AUDIO
    TITLE "17:cjc019_7228"
    INDEX 01 02:31:10
  TRACK 108 AUDIO
    TITLE "0:"
    INDEX 01 02:32:22
